<?xml version="1.0" encoding="UTF-8"?><svg id="Layer_1" xmlns="http://www.w3.org/2000/svg" xmlns:xlink="http://www.w3.org/1999/xlink" viewBox="0 0 857.6 1262"><defs><style>.cls-1{fill:url(#linear-gradient);}.cls-1,.cls-2,.cls-3,.cls-4,.cls-5,.cls-6,.cls-7,.cls-8,.cls-9,.cls-10,.cls-11,.cls-12,.cls-13,.cls-14,.cls-15,.cls-16,.cls-17{stroke:#fff;stroke-miterlimit:10;}.cls-18{fill:#c865ff;}.cls-19{fill:#231f20;}.cls-2{fill:url(#linear-gradient-5);}.cls-3{fill:url(#linear-gradient-8);}.cls-4{fill:url(#linear-gradient-7);}.cls-5{fill:url(#linear-gradient-4);}.cls-6{fill:url(#linear-gradient-3);}.cls-7{fill:url(#linear-gradient-2);}.cls-8{fill:url(#linear-gradient-9);}.cls-9{fill:url(#linear-gradient-6);}.cls-10{fill:url(#Gradients_1-2);}.cls-11{fill:url(#Gradients_1-3);}.cls-12{fill:url(#Gradients_1-4);}.cls-13{fill:url(#Gradients_1-5);}.cls-14{fill:url(#Gradients_1-6);}.cls-15{fill:url(#Gradients_1-7);}.cls-16{fill:url(#Gradients_1-8);}.cls-17{fill:url(#Gradients_1);}</style><linearGradient id="linear-gradient" x1="75.4" y1="55.13" x2="75.4" y2="262.27" gradientUnits="userSpaceOnUse"><stop offset="0" stop-color="#8ee8ef"/><stop offset=".51" stop-color="#d2ffff"/><stop offset="1" stop-color="#73ffc1"/></linearGradient><linearGradient id="linear-gradient-2" x1="195.09" y1="55.13" x2="195.09" y2="262.27" xlink:href="#linear-gradient"/><linearGradient id="linear-gradient-3" x1="287.99" y1="55.13" x2="287.99" y2="262.27" xlink:href="#linear-gradient"/><linearGradient id="linear-gradient-4" x1="366.6" y1="55.13" x2="366.6" y2="262.27" xlink:href="#linear-gradient"/><linearGradient id="linear-gradient-5" x1="448.61" y1="55.13" x2="448.61" y2="262.27" xlink:href="#linear-gradient"/><linearGradient id="linear-gradient-6" x1="521.35" y1="55.13" x2="521.35" y2="262.27" xlink:href="#linear-gradient"/><linearGradient id="linear-gradient-7" x1="595.55" y1="55.13" x2="595.55" y2="262.27" xlink:href="#linear-gradient"/><linearGradient id="linear-gradient-8" x1="682.16" y1="55.13" x2="682.16" y2="262.27" xlink:href="#linear-gradient"/><linearGradient id="linear-gradient-9" x1="784.37" y1="55.13" x2="784.37" y2="262.27" xlink:href="#linear-gradient"/><linearGradient id="Gradients_1" x1="101.42" y1="945.84" x2="101.42" y2="1195.31" gradientUnits="userSpaceOnUse"><stop offset="0" stop-color="#8ee8ef"/><stop offset=".51" stop-color="#d2ffff"/><stop offset="1" stop-color="#73ffc1"/></linearGradient><linearGradient id="Gradients_1-2" x1="235.92" y1="945.84" x2="235.92" y2="1195.31" xlink:href="#Gradients_1"/><linearGradient id="Gradients_1-3" x1="326.28" y1="945.84" x2="326.28" y2="1195.31" xlink:href="#Gradients_1"/><linearGradient id="Gradients_1-4" x1="408.74" y1="945.84" x2="408.74" y2="1195.31" xlink:href="#Gradients_1"/><linearGradient id="Gradients_1-5" x1="496.25" y1="945.84" x2="496.25" y2="1195.31" xlink:href="#Gradients_1"/><linearGradient id="Gradients_1-6" x1="584.49" y1="945.84" x2="584.49" y2="1195.31" xlink:href="#Gradients_1"/><linearGradient id="Gradients_1-7" x1="675.66" y1="945.84" x2="675.66" y2="1195.31" xlink:href="#Gradients_1"/><linearGradient id="Gradients_1-8" x1="769.62" y1="945.84" x2="769.62" y2="1195.31" xlink:href="#Gradients_1"/></defs><path class="cls-18" d="M42.57,6.37c2.32,1.05,5.24,2.58,8.77,4.57,1.15.66,2.28,1.28,3.38,1.86-2.28-1.03-4.67-2.27-7.19-3.72-1.88-1.06-3.59-2-5.14-2.79.06.02.12.05.18.08h0ZM75.5,18.81v3.39c-1.95,1.22-3.72,3.53-5.33,6.95-1.44,3.43-2.17,7.05-2.18,10.84-.02,7.03,1.03,14.36,3.15,22,2.04,7.59,5.29,17.88,9.77,30.88,3.73,10.24,6.76,19.01,9.08,26.3,1.5,4.67,2.87,9.48,4.11,14.41l-1.87,6.43c-1.7-7.87-3.71-15.44-6.05-22.7-2.32-7.29-5.34-16.06-9.07-26.3-4.48-12.99-7.73-23.28-9.77-30.87-2.13-7.64-3.18-14.97-3.16-22,.02-3.8.74-7.41,2.19-10.84,1.61-3.42,3.38-5.74,5.32-6.95v-1.84c1.05.11,2.32.21,3.81.3h0ZM158.89,23.35l-.02,3.16c-6.34,4.13-9.55,11.86-9.62,23.19l-1.21,218.19c-.05,11.5,3.05,18.87,9.32,22.08l-.02,3.17-40.92,7.11v-2.52s37.12-6.45,37.12-6.45v-3.16c-6.25-3.22-9.36-10.58-9.3-22.08l1.21-218.19c.07-11.33,3.27-19.06,9.62-23.19v-1.51s3.82.2,3.82.2ZM100.01,170.42c.06,1.85.08,4.71.06,8.58-.06,13.82-1.46,24.25-4.19,31.27-2.7,7.08-7.09,10.99-13.16,11.73.31-1.13.6-2.2.86-3.2,3.71-1.81,6.54-5.27,8.49-10.38,2.74-7.03,4.13-17.45,4.2-31.27.02-3.87-.01-6.73-.06-8.58l26.97-94.34-.08,15.43-23.09,80.76ZM53.65,279.9c-.04,14.42,4.37,23.21,13.22,26.36l-.02,3.98c-2.5.53-5.54,2.51-9.11,5.94-3.65,3.49-6.89,8.46-9.74,14.9-3.93,8.71-7.92,16.3-11.96,22.8-4.02,6.57-8.19,10.46-12.51,11.67-2.3.66-4.19.13-5.69-1.58.59.01,1.22-.08,1.88-.27,4.33-1.21,8.5-5.1,12.52-11.68,4.04-6.49,8.03-14.09,11.96-22.8,2.85-6.43,6.09-11.4,9.73-14.89,3.58-3.44,6.62-5.42,9.12-5.94l.02-3.99c-8.85-3.15-13.26-11.93-13.23-26.36l.51-196.37c1.05,4.88,2.31,10.05,3.76,15.5l-.46,182.73ZM24.82,340.43c1.2,1.96,1.8,4.52,1.79,7.69,0,.49.03.97.09,1.41-.68.47-1.39.8-2.12.99-.54.14-.96-.24-1.27-1.14-.33-.89-.5-1.93-.5-3.12.01-3.16-.59-5.72-1.8-7.68-.1-.17-.21-.34-.32-.49,1.59-.31,2.97.47,4.13,2.34h0ZM33.26,13.74c-3.19-.22-5.81,1.18-7.86,4.2-2.05,3.02-3.08,7.02-3.08,11.98,0,3.57.66,6.47,2,8.71.35.61.72,1.14,1.09,1.58-.2.03-.4.03-.6.02-1.55-.06-2.98-1.22-4.29-3.45-1.34-2.24-2.01-5.15-2-8.72,0-4.96,1.03-8.95,3.08-11.98,2.05-3.02,4.67-4.42,7.86-4.19,1.93.13,3.57.8,4.92,2-.36-.07-.74-.12-1.12-.15ZM33.72,35.54c1.14.45,2.1,2.01,2.9,4.69.73,2.67,1.09,5.66,1.09,8.98-.01,5.47-1.33,10.04-3.95,13.69-2.59,3.68-5.8,5.48-9.64,5.42-2.11-.04-4.06-.74-5.83-2.11.66.16,1.34.24,2.03.25,3.83.07,7.05-1.74,9.64-5.42,2.62-3.65,3.93-8.21,3.94-13.69.01-3.09-.31-5.9-.94-8.44.45-.96.7-2.09.76-3.37ZM248.15,256.58l-38.72,4.37v-2.29s34.92-3.93,34.92-3.93v-2.97c-2.61-1.55-4.94-4.25-6.97-8.09-1.97-3.86-3.48-8.72-4.53-14.58l-24.63-148.16h3.5s24.93,150.01,24.93,150.01c1.05,5.87,2.56,10.73,4.53,14.59,2.03,3.84,4.36,6.53,6.99,8.08l-.02,2.97ZM187.08,189.88l-8.21,48.55c-.71,3.54-1.07,6.27-1.08,8.18-.03,3.8.61,6.79,1.9,8.94,1.21,2.2,3.27,3.87,6.19,5.03l-.02,3.35-26.68,3.67.02-2.37s.02-.01.02-.02l22.84-3.14.02-3.35c-2.92-1.15-4.98-2.83-6.19-5.02-1.29-2.16-1.93-5.14-1.91-8.95.02-1.9.38-4.63,1.09-8.18l8.21-48.55c1.59.21,3.27.91,5.05,2.11-.42-.12-.84-.2-1.25-.25h0ZM189.04,178.92c4.04,1.95,8.09,4.86,12.14,8.74,1.94,1.8,3.69,3.67,5.25,5.59l.76,4.88c-2.4-4.36-5.67-8.48-9.81-12.33-4.06-3.87-8.1-6.78-12.14-8.74l9.94-56.61,1.93,12.5-8.07,45.97ZM340.25,244.41c-.54,1.92-2.3,4.08-5.3,6.46-3.09,2.41-6.68,3.74-10.76,4.01-3.91.27-7.24-.56-9.99-2.48,1.87.57,3.93.78,6.19.63,4.08-.27,7.67-1.61,10.76-4.01,3-2.39,4.76-4.54,5.29-6.46v-1.54c1.18.28,2.44.39,3.82.31v3.08ZM290.13,167.38l-5.64.24-.3,57.68c-.07,11.8,3.32,19.68,10.17,23.63l-.02,3.38-41.44,3.8v-2.21s37.64-3.45,37.64-3.45l.02-3.37c-6.85-3.96-10.24-11.84-10.17-23.64l.3-57.67,5.63-.25c1.87-.07,3.43.55,4.69,1.87-.29-.02-.58-.03-.88,0h0ZM323.18,94.24c5.61,7.1,8.4,16.9,8.35,29.4-.04,9.49-2.32,17.7-6.83,24.62-4.45,6.95-9.41,11.71-14.86,14.29,3.9,4,6.68,9.19,8.33,15.58,1.63,6.37,3.15,14.92,4.56,25.65,1.12,10.11,2.31,17.51,3.56,22.2,1.43,6.09,3.25,10.23,5.48,12.39.28.28.57.55.88.8-1.81-.45-3.38-1.33-4.69-2.66-2.22-2.16-4.05-6.29-5.47-12.39-1.25-4.69-2.44-12.08-3.56-22.19-1.41-10.73-2.94-19.29-4.57-25.66-1.64-6.38-4.42-11.58-8.32-15.57,5.45-2.58,10.4-7.35,14.86-14.29,4.51-6.92,6.79-15.13,6.83-24.63.04-12.5-2.74-22.3-8.36-29.4-2.32-2.93-4.94-5.26-7.85-6.98,4.47,1.74,8.36,4.68,11.66,8.84h0ZM291.69,93.41l-6.87.04-.24,59.57-3.81.14.25-61.57,6.87-.04c2.65,0,5.09.77,7.31,2.34-1.12-.33-2.29-.49-3.51-.48h0ZM417.97,83.53v2.33c-2.59,1.55-4.84,4.11-6.74,7.69-1.67,3.57-3.11,8.31-4.34,14.22l-29.11,140.84-6.22.23-.38-1.98,2.8-.1,29.11-140.84c1.22-5.91,2.67-10.65,4.34-14.22,1.9-3.58,4.14-6.15,6.73-7.69v-.48h3.81ZM371.72,83.52v3.29c-3.19,1.41-5.41,3.33-6.67,5.76-1.37,2.43-2.06,5.44-2.07,9.05,0,2.67.3,5.64.92,8.93l14.43,72.76-1.78,8.36-16.45-82.98c-.62-3.28-.93-6.26-.92-8.92.01-3.61.7-6.63,2.07-9.05,1.26-2.43,3.47-4.35,6.66-5.77v-1.43h3.81ZM490.9,247.95l-67.39-1.38v-1.78l63.59,1.3-.08-26.07c.55-1.56,1.09-3.23,1.64-5.02l2.14.07.1,32.88ZM487.17,83.54l.11,30.97h-1.98c-.61-1.75-1.22-3.36-1.83-4.87l-.1-26.1h3.8ZM469.7,94.52l-14.92-.03.14,52.53-3.79-.03-.15-54.36,14.92.03c1.97,0,3.82.69,5.55,2.05-.57-.13-1.16-.19-1.75-.19ZM474.04,134.54l2.97.02.05,40.05-2.91-.05c-.29-.87-.58-1.71-.89-2.51l-.05-35.32c.28-.7.56-1.43.83-2.19h0ZM460.22,159.86l-5.29-.05v74.05l-3.8-.09v-75.82l5.29.06c2.33.03,4.45.76,6.36,2.19-.83-.22-1.68-.33-2.56-.34ZM562.86,252.58l-65.18-4.32v-1.61l61.38,4.07-.21-33.09c.52-1.87,1.04-3.87,1.57-6l2.19.14.25,40.81ZM537.61,83.56v3.34c-3.66,2.06-6.24,5.03-7.72,8.92-1.33,3.87-1.98,8.9-1.95,15.08l.73,126.1-3.79-.25-.74-127.7c-.03-6.19.62-11.21,1.95-15.08,1.48-3.89,4.05-6.87,7.73-8.93v-1.48h3.79ZM625.19,93.26c6.46,8.19,11.64,19.28,15.56,33.27,3.92,14.09,5.94,29.44,6.05,46.05.12,16.6-1.69,31.71-5.42,45.33-3.74,13.51-8.78,23.98-15.12,31.42-6.49,7.35-13.62,10.59-21.39,9.73-3.45-.36-6.79-1.49-10.03-3.38,2.04.8,4.11,1.31,6.22,1.53,7.78.86,14.91-2.39,21.4-9.73,6.34-7.44,11.38-17.92,15.12-31.43,3.73-13.61,5.53-28.72,5.42-45.33-.11-16.6-2.13-31.95-6.05-46.04-3.92-13.99-9.11-25.08-15.57-33.27-3.17-3.86-6.46-6.79-9.86-8.81,4.76,1.84,9.32,5.39,13.67,10.66h0ZM603.74,90.51c-3.85,0-7.34,3.53-10.48,10.64-3.24,7.06-5.74,16.57-7.5,28.52-1.79,11.91-2.63,25.03-2.52,39.36.09,14.32,1.12,27.52,3.1,39.62,1.77,12.11,4.36,21.87,7.76,29.28,2.09,4.67,4.26,7.94,6.52,9.83-3.65-.55-7.09-4.45-10.33-11.69-3.39-7.41-5.98-17.17-7.76-29.27-1.97-12.1-3-25.31-3.09-39.62-.11-14.33.72-27.45,2.52-39.37,1.76-11.95,4.26-21.45,7.5-28.51,3.14-7.11,6.63-10.66,10.47-10.64,1.56,0,3.07.64,4.55,1.9-.25-.03-.49-.05-.74-.05h0ZM687.69,83.64l.03,3.66c-3.5,2.25-6,5.59-7.51,10.02-1.46,4.41-2.17,9.82-2.12,16.24l.67,98.07c.09,13.71,1.6,24.24,4.51,31.62,1.91,4.69,4.25,8.05,7.02,10.07-4.49-1.24-8.1-5.22-10.82-11.93-2.92-7.37-4.42-17.91-4.51-31.61l-.68-98.07c-.04-6.42.67-11.84,2.13-16.24,1.5-4.43,4.01-7.77,7.5-10.02v-1.82s3.78.01,3.78.01ZM732.82,83.64l.02,3.81c-7.14,4.83-10.68,13.89-10.6,27.2l.58,102.17c.12,19.94-2.58,34.22-8.1,42.84-5.58,8.49-13.38,11.98-23.41,10.46-4.13-.6-7.89-1.88-11.29-3.84,2.35.94,4.84,1.6,7.49,1.99,10.02,1.51,17.83-1.98,23.41-10.47,5.51-8.61,8.21-22.89,8.1-42.83l-.58-102.17c-.08-13.31,3.45-22.38,10.6-27.2v-1.96s3.78,0,3.78,0Z" vector-effect="non-scaling-stroke"/><path class="cls-18" d="M800.8,187.25c6.99,5.92,12.6,13.63,16.84,23.12,4.24,9.63,6.38,19.73,6.4,30.29.03,11.86-1.69,21.71-5.16,29.57-3.37,7.78-7.96,13.25-13.73,16.39-5.8,3.09-12.2,3.91-19.21,2.48-3.19-.64-5.97-1.65-8.35-3.05,1.6.64,3.33,1.14,5.2,1.51,7.01,1.44,13.41.61,19.21-2.47,5.77-3.15,10.36-8.61,13.73-16.39,3.47-7.86,5.19-17.72,5.16-29.57-.02-10.57-2.16-20.66-6.4-30.29-4.24-9.49-9.86-17.2-16.85-23.12-2.48-2.05-5.01-3.78-7.6-5.18,3.69,1.6,7.27,3.84,10.75,6.71Z"/><path class="cls-18" d="M773.99,191.43c-5.88-.55-11.91.78-18.08,3.98-6.15,3.15-11.28,8.31-15.38,15.48-4.18,7.06-6.24,16.01-6.17,26.84.07,11.19,2.34,21.32,6.84,30.37,4.38,9.17,10.17,16.66,17.36,22.48,3.35,2.81,6.83,5.16,10.42,7.06-4.63-2.09-9.06-4.91-13.29-8.46-7.2-5.83-12.99-13.32-17.36-22.48-4.5-9.06-6.78-19.18-6.85-30.37-.06-10.83,2-19.78,6.18-26.85,4.1-7.17,9.23-12.33,15.38-15.47,6.17-3.2,12.19-4.52,18.07-3.98,3.52.33,6.8,1.36,9.81,3.09-2.19-.89-4.51-1.46-6.93-1.69h0Z"/><path class="cls-18" d="M786.64,227.02c2.61,3.9,3.92,8.85,3.95,14.84.02,4.04-.8,7.21-2.46,9.51-1.7,2.28-4.09,3.17-7.18,2.66-1.03-.17-1.99-.66-2.89-1.49,2.96.41,5.27-.5,6.92-2.71,1.65-2.3,2.47-5.47,2.46-9.51-.03-5.98-1.35-10.93-3.95-14.84-1.23-1.81-2.69-3.26-4.38-4.36,3.07,1.08,5.58,3.04,7.52,5.9h0Z"/><path class="cls-18" d="M775.69,226.91c-3.12-.4-6,.84-8.65,3.68-2.66,2.82-3.98,6.73-3.95,11.74.04,7.17,1.91,12.9,5.61,17.21,1.92,2.21,3.99,3.97,6.21,5.29-3.44-1.33-6.56-3.61-9.36-6.82-3.7-4.31-5.57-10.04-5.61-17.21-.02-5,1.29-8.92,3.95-11.75,2.66-2.85,5.53-4.07,8.65-3.68,1.83.25,3.45.89,4.86,1.9-.55-.17-1.13-.28-1.72-.36h0Z"/><path class="cls-18" d="M793.66,54.07c-3.76.21-7.3,1.72-10.61,4.52-3.4,2.79-6.01,6.58-7.84,11.4-1.94,4.78-2.89,10.04-2.85,15.78.03,6.97,1.53,13.29,4.47,18.96,2.91,5.72,6.56,10.89,10.93,15.52,4.39,4.68,10.56,10.67,18.51,17.97,10.83,10.24,19.69,19.65,26.57,28.23,6.83,8.79,12.67,19.88,17.53,33.24,4.82,13.63,7.24,29.27,7.24,46.9s-3.16,33.72-9.48,46.88c-6.34,12.88-14.94,22.02-25.82,27.41-10.97,5.21-23.1,6.16-36.4,2.88-5.42-1.27-10.6-3.18-15.55-5.77,4,1.82,8.13,3.23,12.41,4.23,13.29,3.29,25.43,2.33,36.4-2.87,10.88-5.39,19.48-14.53,25.82-27.42,6.32-13.16,9.48-28.79,9.48-46.88s-2.42-33.28-7.24-46.9c-4.86-13.36-10.7-24.44-17.54-33.24-6.87-8.58-15.73-17.99-26.56-28.23-7.95-7.29-14.12-13.28-18.51-17.97-4.38-4.62-8.02-9.79-10.93-15.52-2.95-5.67-4.44-11.99-4.47-18.95-.03-5.75.92-11.01,2.85-15.79,1.84-4.81,4.45-8.61,7.84-11.39,3.32-2.81,6.86-4.32,10.62-4.52,4.2-.24,7.84.61,10.92,2.55-2.33-.84-4.92-1.18-7.78-1.02h0Z"/><path class="cls-18" d="M834.92,45.45c1.7,2.66,2.55,6.42,2.56,11.28,0,3.57-.69,7.07-2.1,10.48-1.46,3.41-3.65,7.57-6.55,12.5-3.54,6-6.14,11.08-7.8,15.24-1.79,4.15-2.68,8.8-2.66,13.96.02,6.28,1.09,11.28,3.19,15.02.99,1.82,2.07,3.22,3.26,4.17-2.42-.48-4.52-2.37-6.3-5.66-2.11-3.73-3.17-8.74-3.19-15.01-.02-5.16.87-9.82,2.66-13.96,1.67-4.16,4.27-9.24,7.8-15.25,2.9-4.92,5.08-9.08,6.54-12.49,1.41-3.42,2.12-6.92,2.11-10.49,0-4.85-.86-8.61-2.56-11.28-.55-.84-1.15-1.54-1.79-2.09,1.88.33,3.5,1.52,4.84,3.58h0Z"/><path class="cls-18" d="M837.33,117.33c1.03,1.73,1.55,3.6,1.56,5.6,0,4.15-1.02,7.51-3.08,10.1-1.95,2.54-4.7,3.75-8.24,3.62-2.99-.11-5.69-.92-8.1-2.44,1.58.57,3.26.88,5.05.95,3.54.13,6.29-1.07,8.24-3.63,2.06-2.58,3.08-5.94,3.08-10.09,0-2-.52-3.87-1.56-5.61-.26-.43-.55-.79-.84-1.12,1.6.13,2.9,1,3.89,2.61Z"/><path class="cls-1" d="M.5,35.53C.5,22.67,3.15,13.48,8.45,7.96,13.78,2.52,19.64.05,26.03.57c3.03.24,5.68.88,7.95,1.93,2.32,1.06,5.25,2.58,8.77,4.57,6.03,3.48,11.39,5.75,16.08,6.81.78.05,1.35.18,1.7.39,1.16.26,3.29.48,6.38.67v3.4c-1.95,1.21-3.72,3.53-5.33,6.94-1.44,3.44-2.17,7.05-2.18,10.85-.02,7.02,1.03,14.36,3.15,22,2.04,7.59,5.3,17.88,9.77,30.87,3.73,10.24,6.76,19.01,9.08,26.3,2.33,7.26,4.35,14.83,6.04,22.7l27.03-92.93c.86-2.87,1.3-5.75,1.31-8.64.03-5.96-2.21-11.22-6.72-15.79l.02-3.27,41.22,2.11-.02,3.17c-6.34,4.13-9.55,11.86-9.61,23.19l-1.22,218.18c-.05,11.51,3.05,18.87,9.32,22.09l-.02,3.16-40.92,7.11.02-3.27c2.96-2.7,5.3-6.14,7-10.31,1.68-4.17,2.53-9.31,2.57-15.44l.97-195.14-26.97,94.34c.06,1.85.08,4.71.06,8.58-.06,13.82-1.46,24.24-4.19,31.26-2.7,7.08-7.09,10.99-13.16,11.74,1.28-4.64,2.11-8.11,2.51-10.41.51-2.3.77-5.41.78-9.33.02-5.78-1.34-13.59-4.08-23.43-2.69-9.91-6.83-23.58-12.43-40.99-3.91-12.57-7.06-22.98-9.47-31.22-2.39-8.3-4.34-16-5.88-23.1l-.5,196.37c-.03,14.43,4.37,23.21,13.22,26.36v3.99c-2.52.52-5.56,2.5-9.13,5.94-3.65,3.49-6.89,8.45-9.74,14.89-3.93,8.71-7.91,16.31-11.95,22.8-4.03,6.57-8.2,10.47-12.52,11.68-2.93.83-5.21-.26-6.84-3.27-1.61-3.04-2.42-6.55-2.41-10.55,0-3.8.51-6.88,1.53-9.25,1.03-2.36,2.58-3.81,4.64-4.35,1.7-.43,3.16.34,4.37,2.3,1.2,1.96,1.8,4.52,1.8,7.68,0,1.19.16,2.22.49,3.12.31.9.74,1.28,1.27,1.14,4.74-1.25,8.41-8.15,11-20.7,2.54-12.44,3.83-27.88,3.87-46.33.05-22.33-1.08-39.73-3.41-52.23-2.37-12.55-5.65-20.34-9.81-23.35.34-4.56,1.57-8.34,3.69-11.33,2.15-2.97,4.49-4.59,7.03-4.85.76-.08,1.67.02,2.72.31l.34-144.76c.03-10.87-.56-19.4-1.77-25.59-1.29-6.22-4.22-9.48-8.78-9.8-3.18-.23-5.8,1.17-7.86,4.19-2.05,3.03-3.08,7.02-3.08,11.98,0,3.57.67,6.48,2,8.72,1.31,2.23,2.74,3.38,4.29,3.45,1.31.06,2.46-.53,3.47-1.77,1.01-1.22,1.55-2.82,1.64-4.78,1.14.45,2.11,2.02,2.9,4.69.73,2.67,1.09,5.67,1.09,8.98-.01,5.48-1.33,10.04-3.95,13.69-2.59,3.68-5.8,5.49-9.63,5.42-4.3-.07-7.89-2.89-10.77-8.45C1.92,50.39.5,43.57.5,35.53h0Z"/><path class="cls-7" d="M239.56,252.72l-38.72,4.36.02-3.29c4.68-2.57,7.05-7.64,7.1-15.22.01-2.02-.18-4.85-.55-8.51-.88-5.97-2.98-12.3-6.28-18.99-3.23-6.75-7.03-12.49-11.42-17.22-4.16-4.8-7.9-7.41-11.22-7.84l-8.21,48.55c-.71,3.55-1.07,6.27-1.08,8.18-.03,3.81.61,6.79,1.9,8.95,1.21,2.19,3.27,3.86,6.19,5.02l-.02,3.35-26.67,3.67v-2.36c5.02-3.67,8.71-12.17,11.07-25.52l28.79-158.8,12.67.02,24.93,150.01c1.05,5.86,2.56,10.72,4.54,14.58,2.02,3.84,4.35,6.54,6.98,8.09l-.02,2.97ZM180.45,175.05c4.04,1.96,8.09,4.87,12.14,8.74,4.14,3.85,7.41,7.96,9.81,12.33l-12.01-77.68-9.94,56.61ZM239.56,252.72l-38.72,4.36.02-3.29c4.68-2.57,7.05-7.64,7.1-15.22,0-2.02-.18-4.85-.55-8.51-.88-5.97-2.98-12.3-6.28-18.99-3.23-6.75-7.03-12.49-11.42-17.22-4.16-4.8-7.9-7.41-11.22-7.84l-8.21,48.55c-.71,3.55-1.07,6.27-1.08,8.18-.03,3.81.61,6.79,1.9,8.95,1.21,2.19,3.27,3.86,6.19,5.02l-.02,3.35-26.67,3.67v-2.36c5.02-3.67,8.71-12.17,11.07-25.52l28.79-158.8,12.67.02,24.93,150.01c1.05,5.86,2.56,10.72,4.54,14.58,2.02,3.84,4.35,6.54,6.98,8.09l-.02,2.97ZM180.45,175.05c4.04,1.96,8.09,4.87,12.14,8.74,4.14,3.85,7.41,7.96,9.81,12.33l-12.01-77.68-9.94,56.61Z"/><path class="cls-6" d="M331.66,240.54c-.54,1.93-2.3,4.08-5.29,6.46-3.1,2.41-6.68,3.75-10.77,4.02-6.12.42-10.81-1.84-14.07-6.78-3.27-4.96-5.49-11.04-6.67-18.23-1.17-7.22-2.13-16.49-2.86-27.82-.7-11.99-1.65-20.8-2.88-26.44-1.25-5.65-3.78-8.39-7.58-8.24l-5.64.25-.29,57.67c-.07,11.8,3.31,19.68,10.16,23.64l-.02,3.37-41.44,3.8.03-3.45c7.39-5.29,11.13-13.9,11.19-25.83l.64-115.14c.08-11.76-3.47-20-10.64-24.73l.02-3.45h46.82c9.14.01,16.54,3.58,22.22,10.73,5.62,7.1,8.4,16.9,8.35,29.4-.04,9.5-2.31,17.7-6.83,24.63-4.45,6.94-9.4,11.7-14.85,14.28,3.9,4,6.67,9.19,8.32,15.58,1.63,6.37,3.15,14.93,4.57,25.66,1.11,10.11,2.3,17.5,3.56,22.19,1.42,6.1,3.24,10.23,5.47,12.39,2.15,2.17,4.98,3.16,8.49,2.97v3.07ZM282.81,150.89c3.22-.1,6.24-1.48,9.07-4.14,2.84-2.65,5.12-6.31,6.85-10.99,1.69-4.68,2.54-9.89,2.57-15.63.05-9.11-1.75-16.48-5.4-22.12-3.5-5.66-7.77-8.49-12.79-8.47l-6.88.04-.25,61.57,6.83-.26ZM331.66,240.54c-.54,1.93-2.3,4.08-5.29,6.46-3.1,2.41-6.68,3.75-10.77,4.02-6.12.42-10.81-1.84-14.07-6.78-3.27-4.96-5.49-11.04-6.67-18.23-1.17-7.22-2.13-16.49-2.86-27.82-.7-11.99-1.65-20.8-2.88-26.44-1.25-5.65-3.78-8.39-7.58-8.24l-5.64.25-.29,57.67c-.07,11.8,3.31,19.68,10.16,23.64l-.02,3.37-41.44,3.8.03-3.45c7.39-5.29,11.13-13.9,11.19-25.83l.64-115.14c.08-11.76-3.47-20-10.64-24.73l.02-3.45h46.82c9.14.01,16.54,3.58,22.22,10.73,5.62,7.1,8.4,16.9,8.35,29.4-.04,9.5-2.31,17.7-6.83,24.63-4.45,6.94-9.4,11.7-14.85,14.28,3.9,4,6.67,9.19,8.32,15.58,1.63,6.37,3.15,14.93,4.57,25.66,1.11,10.11,2.3,17.5,3.56,22.19,1.42,6.1,3.24,10.23,5.47,12.39,2.15,2.17,4.98,3.16,8.49,2.97v3.07ZM282.81,150.89c3.22-.1,6.24-1.48,9.07-4.14,2.84-2.65,5.12-6.31,6.85-10.99,1.69-4.68,2.54-9.89,2.57-15.63.05-9.11-1.75-16.48-5.4-22.12-3.5-5.66-7.77-8.49-12.79-8.47l-6.88.04-.25,61.57,6.83-.26Z"/><path class="cls-5" d="M389.42,106.5c1.15-4.98,1.74-8.95,1.74-11.91.01-5.44-2.13-9.33-6.4-11.66v-3.27h24.62v2.33c-2.59,1.55-4.84,4.12-6.74,7.7-1.67,3.57-3.11,8.31-4.33,14.22l-29.11,140.84-6.23.22-26.57-139.08c-1.4-6.3-3.08-11.26-5.03-14.88-2.17-3.62-4.68-6.38-7.54-8.27l.02-3.08h39.28v3.28c-3.19,1.42-5.41,3.34-6.67,5.77-1.36,2.42-2.05,5.44-2.06,9.05-.01,2.66.29,5.64.91,8.92l16.46,82.98,17.65-83.16Z"/><path class="cls-2" d="M482.31,244.08l-67.39-1.38v-3.26c7.52-4.19,11.27-12.03,11.27-23.52l-.14-109.47c0-11.8-3.71-19.65-11.13-23.53v-3.26h63.66s.11,30.99.11,30.99l-1.98-.02c-2.35-6.73-4.78-11.74-7.28-15.03-2.47-3.29-5.24-4.94-8.32-4.95l-14.91-.03.14,54.36,5.27.05c5.84.06,10.45-4.72,13.84-14.36l2.97.03.06,40.04-2.92-.05c-3.15-9.72-7.8-14.62-13.93-14.69l-5.29-.06v75.82l17.9.42c3.55.11,6.51-1.47,8.89-4.75,2.32-3.28,4.63-8.71,6.94-16.3l2.14.08.1,32.87Z"/><path class="cls-9" d="M554.27,248.71l-65.18-4.32v-3.29c7.24-4.05,10.84-11.82,10.81-23.32l-.29-110.95c-.03-11.33-3.75-19.29-11.16-23.86v-3.29s40.57.01,40.57.01l.02,3.34c-3.68,2.06-6.26,5.04-7.74,8.93-1.32,3.87-1.97,8.89-1.95,15.07l.75,127.71,15.69,1.02c3.52.25,6.42-1.74,8.71-5.98,2.3-4.25,4.74-11.59,7.33-22.02l2.19.15.25,40.8Z"/><path class="cls-4" d="M595.09,77.27c7.67-.01,14.84,4.03,21.51,12.13,6.46,8.19,11.64,19.28,15.56,33.27,3.92,14.09,5.94,29.44,6.05,46.04.12,16.61-1.69,31.72-5.41,45.33-3.74,13.51-8.78,23.99-15.12,31.42-6.49,7.35-13.63,10.6-21.4,9.73-7.73-.8-14.95-5.48-21.66-14.04-6.49-8.41-11.71-19.42-15.68-33.04-3.91-13.51-5.93-28.16-6.06-43.93-.1-15.76,1.78-30.25,5.62-43.44,3.73-13.27,8.82-23.81,15.27-31.62,6.47-7.9,13.58-11.85,21.32-11.85ZM596.15,245.79c3.83.4,7.34-2.84,10.53-9.71,3.25-6.91,5.77-16.4,7.57-28.46,1.79-12.12,2.64-25.52,2.54-40.21-.1-14.7-1.14-28.21-3.1-40.55-2.15-12.27-4.83-22.05-8.03-29.33-3.28-7.24-6.78-10.87-10.51-10.88-3.85-.02-7.34,3.53-10.47,10.64-3.24,7.06-5.75,16.56-7.51,28.51-1.79,11.92-2.63,25.04-2.51,39.36.08,14.32,1.12,27.53,3.09,39.63,1.78,12.1,4.36,21.86,7.76,29.27,3.33,7.45,6.88,11.36,10.64,11.73ZM595.09,77.27c7.67-.01,14.84,4.03,21.51,12.13,6.46,8.19,11.64,19.28,15.56,33.27,3.92,14.09,5.94,29.44,6.05,46.04.12,16.61-1.69,31.72-5.41,45.33-3.74,13.51-8.78,23.99-15.12,31.42-6.49,7.35-13.63,10.6-21.4,9.73-7.73-.8-14.95-5.48-21.66-14.04-6.49-8.41-11.71-19.42-15.68-33.04-3.91-13.51-5.93-28.16-6.06-43.93-.1-15.76,1.78-30.25,5.62-43.44,3.73-13.27,8.82-23.81,15.27-31.62,6.47-7.9,13.58-11.85,21.32-11.85h0ZM596.15,245.79c3.83.4,7.34-2.84,10.53-9.71,3.25-6.91,5.77-16.4,7.57-28.46,1.79-12.12,2.64-25.52,2.54-40.21-.1-14.7-1.14-28.21-3.1-40.55-2.15-12.27-4.83-22.05-8.03-29.33-3.28-7.24-6.78-10.87-10.51-10.88-3.85-.02-7.34,3.53-10.47,10.64-3.24,7.06-5.75,16.56-7.51,28.51-1.79,11.92-2.63,25.04-2.51,39.36.08,14.32,1.12,27.53,3.09,39.63,1.78,12.1,4.36,21.86,7.76,29.27,3.33,7.45,6.88,11.36,10.64,11.73h0Z"/><path class="cls-3" d="M649.46,109.25c-.05-6.67-.75-12.1-2.12-16.3-1.37-4.2-3.79-7.41-7.24-9.63l-.03-3.56h39.03s.03,3.68.03,3.68c-3.5,2.25-6,5.59-7.51,10.02-1.46,4.4-2.17,9.82-2.12,16.24l.67,98.07c.1,13.7,1.6,24.24,4.51,31.61,3.02,7.45,7.14,11.53,12.34,12.24,6.37.88,11.09-2.13,14.16-9.05,2.96-7.01,4.4-16.76,4.32-29.25l-.65-102.76c-.04-6.79-.89-12.42-2.53-16.9-1.84-4.46-4.88-7.85-9.14-10.18l-.02-3.71h31.07s.02,3.82.02,3.82c-7.14,4.82-10.68,13.89-10.6,27.19l.58,102.18c.12,19.94-2.58,34.22-8.1,42.83-5.58,8.49-13.38,11.98-23.41,10.47-10.19-1.48-18.15-7.12-23.86-16.94-5.62-9.66-8.51-23.98-8.67-42.93l-.73-97.14Z"/><path class="cls-8" d="M718.2,237.32c-.09-13.53,2.26-25.15,7.05-34.83,4.76-9.8,11.18-17.16,19.28-22.09,8.14-5.01,17.11-7.15,26.91-6.4,7.86.64,15.29,3.85,22.31,9.64,6.99,5.92,12.6,13.63,16.84,23.12,4.24,9.63,6.38,19.73,6.4,30.29.03,11.86-1.69,21.71-5.16,29.57-3.37,7.78-7.96,13.25-13.73,16.39-5.8,3.09-12.2,3.91-19.21,2.48-5.26-1.05-9.41-3.13-12.46-6.25-3.13-3.1-4.71-7.04-4.73-11.8-3.27-3.67-6.03-7.72-8.3-12.14-2.24-4.38-3.39-9.93-3.42-16.65-.02-3.49.6-7,1.84-10.53,1.33-3.52,3.42-6.43,6.27-8.72,2.81-2.29,6.32-3.19,10.52-2.68,4.7.59,8.35,2.82,10.98,6.68,2.61,3.91,3.92,8.86,3.95,14.85.02,4.04-.8,7.21-2.46,9.5-1.7,2.28-4.09,3.18-7.18,2.67-1.48-.24-2.84-1.17-4.06-2.8-1.17-1.62-1.76-3.46-1.78-5.51,0-2.05.57-3.75,1.73-5.09,1.22-1.34,2.56-1.9,4.04-1.69,1.39.22,2.38.77,2.97,1.68.27.31.51.5.7.52.32.05.57-.12.75-.5.26-.38.38-.91.38-1.6-.04-3.06-1.01-5.76-2.9-8.09-1.85-2.32-4.22-3.66-7.11-4.05-3.12-.4-6,.83-8.65,3.68-2.66,2.82-3.98,6.73-3.95,11.74.04,7.16,1.91,12.9,5.61,17.21,3.83,4.4,8.25,7.03,13.26,7.91,5.21.93,9.8.14,13.77-2.35,4.05-2.51,7.16-6.4,9.3-11.68,2.15-5.31,3.21-11.38,3.18-18.2-.02-6.96-1.29-13.68-3.8-20.17-2.56-6.44-6.19-11.77-10.89-16-4.62-4.15-9.89-6.51-15.8-7.06-6.44-.6-13.03.85-19.78,4.34-6.73,3.44-12.34,9.07-16.83,16.89-4.57,7.72-6.82,17.49-6.75,29.31.07,12.22,2.56,23.26,7.49,33.14,4.79,10,11.13,18.18,19,24.54,7.78,6.51,16.19,10.78,25.2,12.8,8.38,1.94,16.39.79,24.04-3.49,7.59-4.38,13.74-11.97,18.45-22.78,4.73-10.98,7.08-24.61,7.05-40.89-.02-13.64-2.09-25.78-6.2-36.42-4.05-10.46-9.01-19.28-14.86-26.47-5.8-7.02-13.61-15.22-23.43-24.61-8.54-7.78-15.44-14.44-20.65-19.98-5.14-5.46-9.45-11.86-12.96-19.22-3.47-7.27-5.23-15.59-5.28-24.96-.05-8.69,1.65-16.49,5.13-23.36,3.44-6.95,8.31-12.48,14.62-16.61,6.37-4.21,13.59-6.57,21.66-7.07,6.92-.45,13.13,1.25,18.64,5.1,5.5,3.92,9.01,9.74,10.52,17.46,1.72-3.26,3.03-6.07,3.92-8.43.92-2.38,1.37-4.81,1.37-7.28,0-2.03-.41-3.69-1.22-4.94-.8-1.25-2.02-1.75-3.63-1.5-.23-1.72.23-3.42,1.38-5.1,1.1-1.67,2.68-2.59,4.74-2.75,2.68-.21,4.91,1.05,6.68,3.77,1.75,2.75,2.63,6.62,2.64,11.62,0,3.69-.71,7.3-2.18,10.82-1.51,3.52-3.76,7.81-6.75,12.88-3.65,6.2-6.33,11.43-8.05,15.72-1.84,4.28-2.76,9.07-2.75,14.4.02,6.48,1.12,11.64,3.29,15.48,2.1,3.89,4.64,5.88,7.62,5.97.42,0,.73-.12.9-.41.14-.29.11-.51-.1-.66-1.5-1.64-2.25-3.76-2.26-6.39,0-2.18.55-4.07,1.67-5.64,1.16-1.6,2.51-2.39,4.07-2.37,1.83.02,3.28.93,4.37,2.71,1.07,1.79,1.6,3.71,1.6,5.77,0,4.28-1.05,7.74-3.18,10.41-2.02,2.63-4.85,3.88-8.5,3.74-5.67-.22-10.31-2.85-13.94-7.92-3.61-5-5.53-11.14-5.77-18.39-1.94.69-3.81,1.03-5.6,1.01-5.5-.04-9.91-2.2-13.23-6.47-3.31-4.23-4.98-9.31-5-15.27-.02-5.26,1.05-9.41,3.23-12.46,2.15-3.07,4.52-4.64,7.1-4.73.84-.03,1.7.15,2.57.55-1.38,2.56-2.07,5.18-2.06,7.84.02,2.8.74,5.24,2.18,7.33,1.49,2.08,3.44,3.11,5.84,3.08,2.54-.04,4.86-1.43,6.95-4.17,2.05-2.76,3.07-6.43,3.05-11-.02-7.3-1.85-13.03-5.5-17.21-3.71-4.12-8.58-6.01-14.59-5.67-3.76.21-7.3,1.71-10.62,4.52-3.39,2.79-6.01,6.58-7.84,11.4-1.93,4.77-2.88,10.04-2.85,15.78.03,6.96,1.52,13.28,4.48,18.96,2.91,5.72,6.56,10.89,10.93,15.51,4.39,4.69,10.56,10.68,18.51,17.97,10.83,10.24,19.69,19.65,26.57,28.22,6.83,8.8,12.67,19.89,17.53,33.24,4.82,13.62,7.24,29.26,7.24,46.9s-3.16,33.72-9.48,46.88c-6.34,12.89-14.94,22.03-25.82,27.42-10.98,5.2-23.11,6.16-36.4,2.88-11.13-2.61-21.27-7.97-30.43-16.1-9.31-7.9-16.63-17.69-21.96-29.37-5.41-11.49-8.16-23.94-8.26-37.36h0Z"/><path class="cls-18" d="M100.3,916.08v3.36c-2.44,1.18-4.48,3.46-6.11,6.85-1.65,3.4-2.48,6.98-2.49,10.75-.03,6.97,1.16,14.25,3.57,21.83,2.31,7.54,6.05,17.74,11.2,30.61,4.24,10.14,7.7,18.82,10.37,26.03,1.83,4.87,3.47,9.88,4.92,15.03l-1.87,5.55c-1.87-7.78-4.15-15.26-6.85-22.43-2.68-7.22-6.14-15.9-10.37-26.03-5.16-12.88-8.89-23.08-11.2-30.61-2.41-7.58-3.6-14.86-3.57-21.83.01-3.77.84-7.35,2.49-10.75,1.63-3.39,3.66-5.68,6.1-6.85v-1.79c1.11.1,2.38.19,3.81.28h0Z"/><path class="cls-18" d="M195.67,921.05l-.02,3.11c-7.29,4.04-10.96,11.63-11.02,22.78l-1.21,214.76c-.07,11.32,3.48,18.52,10.65,21.6l-.02,3.11-46.97,7.74v-2.48s43.17-7.11,43.17-7.11l.02-3.12c-7.17-3.08-10.72-10.28-10.66-21.6l1.21-214.75c.07-11.15,3.74-18.75,11.03-22.78v-1.45s3.82.19,3.82.19Z"/><path class="cls-18" d="M128.28,1066.16c.08,1.82.11,4.64.09,8.47-.07,13.66-1.64,23.98-4.73,30.96-3.05,7.02-8.13,10.96-15.24,11.81.35-1.06.67-2.06.97-3,4.66-1.77,8.15-5.33,10.46-10.66,3.09-6.98,4.67-17.3,4.74-30.97.02-3.82-.01-6.65-.1-8.47l30.74-93.26-.06,13.6-26.87,81.52Z"/><path class="cls-18" d="M75.26,1175.4c-.03,11.52,3.23,19.35,9.76,23.48-9.07-3.32-13.59-11.76-13.56-25.34l.5-195.17c1.08,4.27,2.34,8.76,3.77,13.46l-.47,183.57Z"/><path class="cls-18" d="M90.4,1201.24l-.02,3.96c-2.87.59-6.39,2.65-10.58,6.19-4.08,3.55-7.74,8.57-10.98,15.06-4.53,8.79-9.1,16.49-13.74,23.1-4.6,6.7-9.38,10.73-14.34,12.11-2.7.76-4.92.25-6.65-1.53.88.07,1.83-.04,2.85-.33,4.95-1.37,9.73-5.41,14.34-12.11,4.63-6.6,9.21-14.3,13.73-23.1,3.24-6.48,6.9-11.5,10.99-15.06,4.18-3.53,7.71-5.6,10.58-6.19v-3.57c1.19.59,2.46,1.08,3.82,1.47Z"/><path class="cls-18" d="M42.27,1236.53c1.37,1.92,2.05,4.45,2.05,7.61,0,.56.04,1.08.11,1.58-.61.33-1.25.58-1.9.75-.61.16-1.11-.2-1.49-1.09-.35-.88-.53-1.92-.53-3.1.01-3.15-.67-5.69-2.04-7.6-.11-.15-.21-.29-.32-.42,1.59-.1,2.96.66,4.12,2.27h0Z"/><path class="cls-18" d="M51.92,910.68c-3.65-.26-6.67,1.11-9.06,4.1-2.31,3.01-3.47,6.99-3.47,11.94,0,3.56.75,6.46,2.26,8.7.41.63.84,1.17,1.28,1.63h-.17c-1.8-.08-3.44-1.24-4.91-3.48-1.51-2.24-2.27-5.15-2.26-8.71,0-4.95,1.16-8.93,3.47-11.93,2.39-3,5.41-4.36,9.06-4.11,2.26.16,4.17.87,5.72,2.14-.61-.14-1.25-.23-1.92-.28h0Z"/><path class="cls-18" d="M52.45,932.4c1.42.47,2.52,2.03,3.32,4.69.81,2.67,1.21,5.65,1.2,8.95-.01,5.46-1.5,10-4.48,13.63-2.96,3.66-6.65,5.45-11.05,5.38-2.54-.05-4.86-.82-6.96-2.32,1.01.29,2.06.44,3.15.46,4.41.08,8.09-1.71,11.06-5.38,2.98-3.63,4.47-8.17,4.48-13.62.01-3.3-.4-6.29-1.21-8.95-.02-.07-.04-.14-.06-.21.31-.79.5-1.66.55-2.63h0Z"/><path class="cls-18" d="M269.32,989.68c7.41,7.88,13.26,18.51,17.54,31.89,4.27,13.27,6.37,27.85,6.29,43.74-.07,15.89-2.33,30.68-6.75,44.36-4.46,13.78-10.46,24.98-18.01,33.6-7.41,8.75-15.56,13.62-24.47,14.61-5.93.7-11.54-.48-16.82-3.54,4.15,1.66,8.49,2.22,13.02,1.69,8.9-.99,17.06-5.86,24.47-14.61,7.55-8.62,13.55-19.82,18.01-33.61,4.42-13.68,6.67-28.46,6.75-44.35.08-15.89-2.02-30.47-6.3-43.75-4.27-13.38-10.12-24.01-17.54-31.88-3.06-3.4-6.29-6.08-9.7-8.04,4.82,1.95,9.32,5.25,13.51,9.89Z"/><path class="cls-18" d="M244.87,987.18c-4.29.02-8.31,3.69-12.05,11.03-3.73,7.39-6.66,17.32-8.81,29.79-2.32,12.54-3.53,26.27-3.63,41.2-.1,14.92.93,28.51,3.09,40.78,2.06,12.21,4.94,21.79,8.64,28.73,1.86,3.53,3.8,6.1,5.83,7.7-3.43-.68-6.64-3.87-9.64-9.55-3.7-6.95-6.58-16.53-8.64-28.74-2.15-12.26-3.18-25.85-3.08-40.77.1-14.93,1.31-28.67,3.62-41.21,2.15-12.47,5.09-22.4,8.82-29.79,3.74-7.33,7.76-11.01,12.05-11.02,1.86-.01,3.67.66,5.42,2.02-.53-.11-1.07-.17-1.62-.17h0Z"/><path class="cls-18" d="M372.33,1144.96l-75.04,5.07v-2.11s71.24-4.82,71.24-4.82l-.02-33.62c.42-1.34.85-2.74,1.28-4.2l2.52-.09.02,39.77Z"/><path class="cls-18" d="M344.92,980.21v3.32c-4.32,2.07-7.26,5.06-8.84,8.96-1.64,3.9-2.45,8.96-2.43,15.16l-.55,126.05-3.81.23.55-128.13c-.01-6.21.8-11.26,2.44-15.17,1.57-3.9,4.52-6.88,8.83-8.95v-1.47h3.81Z"/><path class="cls-18" d="M454.73,1143.29l-74.9,1.34v-1.93l71.1-1.26-.14-33.44c.41-1.31.82-2.67,1.23-4.09h2.55s.16,39.38.16,39.38Z"/><path class="cls-18" d="M426.83,980.21v3.27c-4.38,2.02-7.34,4.94-8.89,8.75-1.62,3.81-2.41,8.75-2.37,14.82l-.05,123.38-3.8.04.05-125.28c-.04-6.06.75-11,2.37-14.81,1.54-3.82,4.51-6.74,8.89-8.76v-1.41h3.8Z"/><path class="cls-18" d="M501.39,980.22v3.29c-4.03,2.02-6.92,5.02-8.67,9.01-1.7,3.96-2.55,8.84-2.54,14.61l.28,88.19c.03,12.32,1.74,21.69,5.14,28.11,1.81,3.34,3.93,5.85,6.35,7.51-4.06-1.25-7.45-4.38-10.15-9.37-3.4-6.42-5.12-15.79-5.14-28.11l-.28-88.19c-.01-5.77.83-10.64,2.54-14.61,1.74-3.98,4.64-6.98,8.68-9.01v-1.43h3.79Z"/><path class="cls-18" d="M553.11,980.25l.02,3.34c-8.19,4.26-12.25,12.24-12.2,23.96l.48,89.98c.09,17.56-3.09,30.31-9.55,38.25-6.67,7.91-15.73,11.6-27.17,11.07-6.88-.25-12.87-1.82-17.96-4.73,4.2,1.73,8.92,2.69,14.16,2.87,11.44.54,20.5-3.15,27.17-11.07,6.45-7.93,9.64-20.68,9.55-38.24l-.48-89.99c-.05-11.71,4.01-19.7,12.19-23.95v-1.49h3.79Z"/><path class="cls-18" d="M584.35,991.78c-2.33,3.29-3.48,7.6-3.45,12.92.04,7.09,1.79,14.1,5.25,21.04,3.44,6.97,8.4,14.39,14.89,22.25,17.2,21.57,25.86,42.2,26,61.89.06,9.76-1.78,18.02-5.52,24.76-3.77,6.71-8.56,11.54-14.37,14.49-5.83,2.94-11.95,4.11-18.37,3.51-5.63-.5-11.01-1.69-16.15-3.57-2.51-.9-4.71-1.88-6.6-2.95.88.38,1.82.74,2.8,1.09,5.14,1.88,10.52,3.08,16.15,3.58,6.41.6,12.54-.57,18.37-3.51,5.81-2.96,10.6-7.79,14.37-14.5,3.74-6.74,5.58-14.99,5.51-24.76-.13-19.69-8.79-40.32-25.99-61.88-6.49-7.86-11.45-15.28-14.89-22.26-3.46-6.93-5.21-13.94-5.25-21.03-.03-5.32,1.12-9.63,3.45-12.93,2.01-3.3,4.73-4.95,8.16-4.94h0c2.37.01,4.63.78,6.81,2.29-.99-.28-1.99-.43-3.01-.43h0c-3.43-.01-6.15,1.63-8.16,4.94h0Z"/><path class="cls-18" d="M617.5,985.48l.22,30.37-1.99-.05c-.62-1.49-1.23-2.92-1.83-4.3l-.2-27.88c-.94-.96-2.07-1.84-3.41-2.65,3.09,1.23,5.49,2.74,7.21,4.51Z"/><path class="cls-18" d="M718.6,1139.22c1.7,7.13,3.83,12.16,6.4,15.1.88,1.09,1.87,2.02,2.98,2.79-2.75-.88-5.01-2.43-6.78-4.64-2.57-2.94-4.7-7.98-6.4-15.11l-1.81-8.17c-3.48-15.01-6.74-27.89-9.78-38.62-3.05-10.65-6.76-20.26-11.12-28.84-2.65-5.19-5.46-8.84-8.42-10.96,4.38,1.18,8.46,5.45,12.23,12.82,4.36,8.57,8.06,18.19,11.11,28.84,3.04,10.73,6.3,23.6,9.78,38.61l1.81,8.18Z"/><path class="cls-18" d="M730.5,1159.6l.02,3.49c-.7,2.03-2.69,4.03-5.97,6.02-3.24,1.98-7.21,2.6-11.9,1.87-3.14-.48-6.02-1.51-8.63-3.1,1.53.57,3.14.99,4.82,1.24,4.7.74,8.67.11,11.9-1.87,3.28-1.98,5.28-3.99,5.98-6.01l-.02-2.66c1.17.47,2.43.81,3.8,1.02Z"/><path class="cls-18" d="M670.42,1063.92c-.47.99-.7,2.08-.69,3.27l.46,54.97c.06,10.05,1.09,17.66,3.08,22.84,2.05,5.2,5.18,9.28,9.39,12.23l.03,3.6-47.69-5.92v-1.38s43.88,5.45,43.88,5.45l-.02-3.61c-4.21-2.94-7.34-7.02-9.39-12.23-1.99-5.17-3.02-12.78-3.09-22.83l-.45-54.97c-.01-1.19.22-2.28.69-3.27.44-1,1.29-1.46,2.55-1.37,1.3.07,2.44.69,3.4,1.84-1.04.03-1.75.49-2.15,1.38h0Z"/><path class="cls-18" d="M681.49,980.32l.02,3.6c-2.68,1.03-5.41,4.31-8.18,9.85-2.67,5.51-3.99,10.82-3.96,15.93l.19,30.83c-.09.15-.19.3-.28.45l-3.47,5.45-.24-38.58c-.03-5.12,1.29-10.43,3.95-15.93,2.78-5.54,5.5-8.83,8.19-9.85v-1.76s3.78.01,3.78.01Z"/><path class="cls-18" d="M729.33,980.34l.02,3.48c-6.41,3.34-13.25,10.43-20.51,21.27-1.93,2.76-7.15,10.89-15.66,24.4-2.14,3.37-4.36,6.82-6.67,10.35-2.01,3.02-4.02,6.11-6.04,9.26-.86-.29-1.73-.46-2.61-.51-.9-.05-1.63,0-2.17.16,2.35-3.67,4.69-7.26,7.01-10.76,2.32-3.53,4.54-6.98,6.68-10.36,8.51-13.5,13.73-21.63,15.66-24.39,7.26-10.84,14.1-17.93,20.51-21.28v-1.62s3.78,0,3.78,0Z"/><path class="cls-18" d="M784.72,1093.4c6.85,5.8,12.35,13.36,16.5,22.66,4.16,9.44,6.25,19.33,6.27,29.69.03,11.62-1.65,21.28-5.06,28.98-3.31,7.63-7.8,12.99-13.46,16.07-5.68,3.02-11.96,3.83-18.82,2.43-3.13-.62-5.85-1.62-8.18-2.99,1.56.62,3.26,1.12,5.1,1.48,6.87,1.41,13.14.6,18.82-2.42,5.66-3.09,10.15-8.44,13.46-16.07,3.4-7.7,5.08-17.36,5.06-28.98-.02-10.36-2.12-20.25-6.27-29.69-4.16-9.3-9.66-16.85-16.51-22.66-2.43-2.01-4.91-3.7-7.45-5.07,3.62,1.56,7.13,3.76,10.54,6.57Z"/><path class="cls-18" d="M757.27,1096.82c-5.88-.55-11.91.78-18.08,3.98-6.15,3.15-11.28,8.31-15.38,15.48-4.18,7.06-6.24,16.01-6.17,26.84.07,11.19,2.34,21.32,6.84,30.37,4.38,9.17,10.17,16.66,17.36,22.48,3.35,2.81,6.83,5.16,10.42,7.06-4.63-2.09-9.06-4.91-13.29-8.46-7.2-5.83-12.99-13.32-17.36-22.48-4.5-9.06-6.78-19.18-6.85-30.37-.06-10.83,2-19.78,6.18-26.85,4.1-7.17,9.23-12.33,15.38-15.47,6.17-3.2,12.19-4.52,18.07-3.98,3.52.33,6.8,1.36,9.81,3.09-2.19-.89-4.51-1.46-6.93-1.69h0Z"/><path class="cls-18" d="M772.86,1132.38c2.55,3.83,3.84,8.67,3.87,14.54.02,3.96-.79,7.07-2.41,9.32-1.66,2.24-4.01,3.1-7.04,2.61-1.01-.16-1.95-.65-2.83-1.46,2.9.41,5.16-.49,6.79-2.66,1.62-2.25,2.42-5.36,2.41-9.32-.03-5.86-1.32-10.71-3.87-14.54-1.21-1.78-2.63-3.19-4.29-4.27,3.01,1.05,5.46,2.97,7.37,5.78h0Z"/><path class="cls-18" d="M762.12,1132.27c-3.06-.39-5.88.82-8.48,3.61-2.61,2.76-3.9,6.6-3.87,11.5.04,7.03,1.87,12.65,5.5,16.86,1.88,2.16,3.91,3.89,6.09,5.19-3.37-1.31-6.43-3.53-9.17-6.69-3.62-4.22-5.46-9.84-5.5-16.86-.02-4.9,1.26-8.74,3.87-11.51,2.6-2.79,5.42-3.99,8.48-3.61,1.79.24,3.38.87,4.77,1.86-.54-.16-1.1-.28-1.69-.36h0Z"/><path class="cls-18" d="M779.73,962.88c-3.69.2-7.16,1.69-10.4,4.43-3.33,2.73-5.89,6.45-7.68,11.17-1.9,4.69-2.83,9.84-2.8,15.47.03,6.83,1.5,13.03,4.39,18.58,2.85,5.61,6.43,10.68,10.71,15.21,4.3,4.59,10.35,10.46,18.14,17.61,10.61,10.04,19.29,19.25,26.04,27.67,6.7,8.62,12.42,19.48,17.18,32.57,4.73,13.36,7.09,28.68,7.09,45.96s-3.1,33.04-9.29,45.95c-6.21,12.62-14.64,21.58-25.3,26.86-10.75,5.11-22.64,6.04-35.68,2.82-5.31-1.24-10.38-3.12-15.24-5.65,3.92,1.78,7.97,3.16,12.16,4.14,13.03,3.23,24.92,2.29,35.68-2.81,10.66-5.29,19.09-14.24,25.3-26.87,6.19-12.9,9.29-28.22,9.29-45.94s-2.37-32.61-7.09-45.96c-4.76-13.09-10.49-23.95-17.19-32.58-6.74-8.41-15.42-17.63-26.03-27.67-7.79-7.14-13.84-13.01-18.14-17.61-4.29-4.53-7.85-9.6-10.71-15.21-2.89-5.55-4.35-11.75-4.39-18.57-.03-5.63.9-10.79,2.79-15.47,1.8-4.71,4.36-8.44,7.68-11.16,3.25-2.76,6.72-4.23,10.41-4.43,4.12-.24,7.68.6,10.7,2.5-2.29-.82-4.82-1.16-7.62-1h0Z"/><path class="cls-18" d="M820.17,954.43c1.67,2.61,2.5,6.29,2.51,11.05,0,3.5-.68,6.92-2.06,10.27-1.43,3.34-3.58,7.42-6.42,12.25-3.47,5.88-6.01,10.86-7.65,14.93-1.75,4.06-2.63,8.62-2.61,13.68.02,6.15,1.07,11.06,3.13,14.72.97,1.78,2.03,3.15,3.19,4.09-2.37-.47-4.43-2.33-6.18-5.55-2.07-3.65-3.1-8.57-3.13-14.71-.02-5.06.86-9.63,2.61-13.68,1.63-4.08,4.18-9.05,7.65-14.94,2.85-4.82,4.98-8.9,6.41-12.24,1.38-3.36,2.07-6.78,2.07-10.28,0-4.76-.84-8.44-2.51-11.05-.54-.83-1.12-1.51-1.75-2.05,1.85.32,3.43,1.49,4.74,3.51h0Z"/><path class="cls-18" d="M822.53,1024.88c1.01,1.7,1.52,3.53,1.52,5.49,0,4.06-1,7.36-3.02,9.9-1.91,2.49-4.61,3.68-8.08,3.54-2.93-.11-5.58-.9-7.94-2.39,1.55.56,3.2.86,4.95.94,3.47.13,6.16-1.05,8.08-3.55,2.02-2.53,3.02-5.82,3.02-9.89,0-1.96-.51-3.8-1.52-5.49-.25-.42-.53-.78-.83-1.1,1.57.13,2.85.98,3.81,2.56Z"/><path class="cls-17" d="M15.71,933.07c0-12.86,3.01-22.03,9.04-27.49,6.1-5.37,12.82-7.77,20.16-7.18,3.41.26,6.45.93,9.12,2.01,2.65,1.07,6.01,2.61,10.06,4.63,6.92,3.51,13.04,5.81,18.37,6.9.9.06,1.47.19,1.69.39,1.53.27,4.07.52,7.62.73v3.37c-2.45,1.17-4.48,3.46-6.11,6.85-1.65,3.4-2.48,6.98-2.49,10.75-.03,6.97,1.16,14.25,3.57,21.83,2.31,7.53,6.04,17.73,11.2,30.61,4.24,10.13,7.69,18.81,10.37,26.03,2.7,7.17,4.98,14.65,6.85,22.43l30.95-91.83c1.05-2.83,1.59-5.67,1.6-8.51.03-5.88-2.57-11.09-7.81-15.62l.02-3.23,47.22,2.29-.02,3.11c-7.29,4.04-10.96,11.64-11.03,22.79l-1.21,214.75c-.06,11.32,3.49,18.52,10.66,21.6l-.02,3.12-46.97,7.73.02-3.23c3.63-2.76,6.33-6.21,8.12-10.34,1.84-4.11,2.78-9.19,2.81-15.23l.99-192.45-30.75,93.26c.09,1.82.12,4.65.1,8.47-.07,13.67-1.65,23.99-4.74,30.97-3.04,7.02-8.12,10.96-15.23,11.81,1.51-4.62,2.56-8.08,3.13-10.36.45-2.27.69-5.34.7-9.22.03-5.73-1.49-13.46-4.55-23.18-3.15-9.8-7.91-23.31-14.29-40.53-4.46-12.46-8.07-22.77-10.83-30.95-2.75-8.23-5.02-15.88-6.8-22.94l-.5,195.17c-.03,14.34,5.01,22.95,15.13,25.85v3.95c-2.88.59-6.41,2.66-10.59,6.19-4.08,3.56-7.75,8.58-10.99,15.06-4.52,8.8-9.1,16.5-13.73,23.1-4.6,6.7-9.38,10.74-14.34,12.11-3.34.95-5.93-.05-7.79-3-1.85-2.97-2.78-6.44-2.78-10.44,0-3.79.58-6.89,1.74-9.29,1.19-2.4,2.97-3.91,5.33-4.52,1.98-.5,3.65.21,5.03,2.13,1.37,1.91,2.05,4.45,2.05,7.6-.01,1.18.17,2.22.52,3.1.38.89.88,1.25,1.49,1.09,5.44-1.42,9.65-8.43,12.62-21.02,2.93-12.46,4.43-27.88,4.47-46.24.06-22.21-1.26-39.51-3.94-51.9-2.77-12.46-6.51-20.15-11.24-23.08.39-4.56,1.79-8.34,4.19-11.35,2.48-2.99,5.17-4.63,8.06-4.93.9-.09,1.95,0,3.16.25l.37-144.05c.02-10.82-.7-19.32-2.16-25.49-1.45-6.2-4.76-9.48-9.94-9.84-3.65-.25-6.67,1.11-9.06,4.11-2.31,3-3.47,6.98-3.47,11.93-.01,3.56.75,6.47,2.26,8.71,1.47,2.24,3.11,3.4,4.91,3.48,1.51.06,2.84-.52,3.99-1.75,1.15-1.22,1.78-2.8,1.9-4.75,1.42.46,2.52,2.02,3.31,4.69.82,2.66,1.22,5.65,1.21,8.95-.01,5.45-1.5,9.99-4.48,13.62-2.97,3.67-6.65,5.46-11.05,5.38-4.93-.09-9.03-2.91-12.3-8.47-3.27-5.62-4.9-12.45-4.9-20.49Z"/><path class="cls-10" d="M236.4,974.66c9.07.03,17.2,4.03,24.38,12.01,7.42,7.87,13.27,18.5,17.55,31.88,4.27,13.28,6.37,27.86,6.29,43.75-.08,15.89-2.33,30.67-6.75,44.35-4.46,13.79-10.46,24.99-18.01,33.61-7.41,8.75-15.57,13.62-24.47,14.61-8.85,1.03-16.98-2.1-24.37-9.42-7.42-7.4-13.26-17.94-17.51-31.62-4.29-13.79-6.39-29.15-6.28-46.07s2.4-32.57,6.86-46.95c4.39-14.24,10.35-25.53,17.9-33.86,7.53-8.21,15.66-12.31,24.41-12.29h0ZM235.45,1145.35c4.27-.45,8.27-4.47,11.99-12.06,3.84-7.54,6.95-17.47,9.34-29.78,2.06-12.22,3.14-25.57,3.23-40.03.09-14.47-.86-27.72-2.86-39.76-2.17-12.05-5.11-21.65-8.84-28.78-3.69-7.2-7.68-10.79-11.97-10.77-4.29.01-8.31,3.69-12.05,11.02-3.73,7.39-6.67,17.32-8.82,29.79-2.31,12.54-3.52,26.28-3.62,41.21-.1,14.92.93,28.51,3.08,40.77,2.06,12.21,4.94,21.79,8.64,28.74,3.64,6.9,7.6,10.12,11.88,9.65h0Z"/><path class="cls-11" d="M363.8,1141.94l-75.04,5.08.02-3.4c8.42-5.19,12.67-13.66,12.73-25.4l.52-113.3c.06-11.58-4.03-19.69-12.27-24.34l.02-3.39h46.61v3.33c-4.32,2.07-7.27,5.05-8.84,8.95-1.64,3.91-2.45,8.96-2.43,15.17l-.56,128.13,18.05-1.08c3.95-.21,7.27-2.55,9.97-7.02,2.69-4.44,5.58-11.91,8.68-22.41l2.52-.09.02,39.77Z"/><path class="cls-12" d="M446.2,1140.28l-74.91,1.33v-3.29c8.37-4.68,12.57-12.72,12.59-24.13l.17-110.05c.03-11.25-4.09-19.13-12.36-23.65v-3.29h46.61v3.26c-4.38,2.02-7.35,4.94-8.89,8.76-1.62,3.81-2.41,8.75-2.37,14.81l-.05,125.28,18.03-.22c3.93-.02,7.27-2.17,10.02-6.44,2.67-4.27,5.48-11.52,8.45-21.76l2.55.02.16,39.37Z"/><path class="cls-13" d="M458.54,1004.02c-.01-6.06-.79-11-2.34-14.81-1.38-3.81-4.14-6.73-8.29-8.75v-3.26h44.95s0,3.29,0,3.29c-4.04,2.03-6.94,5.03-8.68,9.01-1.71,3.97-2.55,8.84-2.54,14.61l.28,88.19c.03,12.32,1.74,21.69,5.14,28.11,3.49,6.45,8.11,9.78,13.87,10,7.65.34,13.2-2.67,16.66-9.03,3.45-6.38,5.15-15.09,5.1-26.13l-.36-90.82c-.02-6-1.07-10.97-3.15-14.92-1.9-3.95-5.34-6.95-10.33-9v-3.29s35.72.02,35.72.02l.02,3.34c-8.19,4.25-12.25,12.24-12.2,23.95l.48,89.99c.09,17.56-3.1,30.31-9.55,38.24-6.67,7.92-15.73,11.61-27.17,11.07-11.88-.42-21.09-4.81-27.63-13.15-6.53-8.28-9.83-21.05-9.9-38.3l-.09-88.36Z"/><path class="cls-14" d="M583.98,983.82c-3.43-.01-6.15,1.64-8.16,4.94-2.33,3.3-3.48,7.61-3.45,12.93.04,7.09,1.79,14.1,5.25,21.03,3.44,6.98,8.4,14.39,14.89,22.26,17.2,21.56,25.86,42.19,25.99,61.88.07,9.77-1.77,18.02-5.51,24.76-3.77,6.71-8.56,11.54-14.37,14.5-5.83,2.94-11.96,4.11-18.37,3.51-5.63-.5-11.01-1.7-16.15-3.58-5.19-1.85-9.07-4.08-11.65-6.67l-.17-33.53,2.62-.08c1.56,9.69,4.67,17.82,9.34,24.4,4.62,6.63,9.94,10.21,15.95,10.71,3.7.33,7.26-1.22,10.68-4.65,3.61-3.43,5.35-9.64,5.2-18.63-.05-7.68-2.1-15.98-6.17-24.89-4.18-8.86-9.68-18.15-16.51-27.86-15.22-20.91-22.85-37.67-22.91-50.27-.06-13.25,3.01-23.17,9.2-29.77,6.23-6.65,14.2-9.98,23.92-9.98,5.5-.01,10.54.68,15.1,2.06,4.6,1.4,8.02,3.26,10.27,5.57l.21,30.37-1.98-.05c-3.89-9.43-7.68-16.61-11.36-21.55-3.63-4.92-7.59-7.39-11.86-7.41h0Z"/><path class="cls-15" d="M710.07,1136.2c1.7,7.13,3.83,12.17,6.4,15.11,2.33,2.9,5.5,4.66,9.5,5.27l.03,3.5c-.7,2.02-2.69,4.03-5.98,6.01-3.23,1.98-7.2,2.61-11.9,1.87-7.46-1.12-13.42-5.41-17.9-12.86-4.46-7.37-7.65-15.7-9.58-25-1.98-9.27-3.85-20.97-5.6-35.08-1.59-12.51-3.07-21.52-4.42-27.02-1.23-5.47-3.29-8.29-6.18-8.46-1.26-.09-2.11.37-2.55,1.37-.47.99-.7,2.08-.69,3.27l.45,54.97c.07,10.05,1.1,17.66,3.09,22.83,2.05,5.21,5.18,9.29,9.39,12.23l.03,3.61-47.69-5.92-.03-3.49c8.2-3.76,12.25-11.76,12.17-24.01l-.83-118.19c-.04-5.7-1.04-10.74-3.01-15.12-1.99-4.35-4.52-7.46-7.6-9.31l-1.82-1.02-.02-3.49,47.62.03.03,3.61c-2.69,1.02-5.41,4.31-8.19,9.85-2.66,5.5-3.98,10.81-3.95,15.92l.24,38.59,3.47-5.45c12.11-18.65,19.26-29.85,21.44-33.6,4.63-7.75,6.94-13.72,6.91-17.9-.03-3.49-1.67-6.03-4.94-7.62l-.02-3.39h32.85s.03,3.49.03,3.49c-6.41,3.35-13.25,10.44-20.51,21.28-1.93,2.76-7.15,10.89-15.66,24.39-2.14,3.38-4.36,6.83-6.68,10.35-2.32,3.51-4.66,7.1-7.01,10.77.54-.16,1.27-.21,2.17-.16,5.15.28,9.9,4.66,14.23,13.14,4.36,8.58,8.07,18.19,11.12,28.84,3.04,10.73,6.3,23.61,9.78,38.62l1.81,8.17Z"/><path class="cls-19" d="M744.56,1085.65c-5.88-.64-11.91.92-18.08,4.68-6.15,3.71-11.28,9.78-15.38,18.22-4.18,8.31-6.24,18.85-6.17,31.59.07,13.17,2.34,25.09,6.84,35.74,4.38,10.79,10.17,19.61,17.36,26.46,3.35,3.31,6.83,6.07,10.42,8.3-4.63-2.46-9.06-5.78-13.29-9.95-7.2-6.86-12.99-15.68-17.36-26.46-4.5-10.66-6.78-22.58-6.85-35.74-.06-12.75,2-23.28,6.18-31.6,4.1-8.44,9.23-14.51,15.38-18.21,6.17-3.76,12.19-5.32,18.07-4.68,3.52.39,6.8,1.61,9.81,3.64-2.19-1.05-4.51-1.72-6.93-1.99h0Z"/><path class="cls-16" d="M704.78,1142.47c-.09-13.26,2.21-24.64,6.91-34.14,4.66-9.61,10.96-16.82,18.9-21.64,7.98-4.91,16.77-7,26.37-6.27,7.7.62,14.99,3.77,21.86,9.44,6.85,5.8,12.35,13.36,16.5,22.66,4.16,9.44,6.25,19.33,6.27,29.69.03,11.62-1.65,21.28-5.06,28.98-3.31,7.63-7.8,12.99-13.46,16.07-5.68,3.02-11.96,3.83-18.82,2.43-5.16-1.03-9.22-3.07-12.21-6.13-3.07-3.04-4.61-6.9-4.64-11.57-3.2-3.6-5.91-7.56-8.13-11.9-2.2-4.29-3.32-9.74-3.36-16.32-.02-3.42.58-6.86,1.8-10.32,1.31-3.45,3.36-6.3,6.14-8.54,2.76-2.25,6.19-3.13,10.31-2.63,4.6.58,8.19,2.76,10.77,6.55,2.55,3.83,3.84,8.68,3.87,14.55.02,3.96-.79,7.07-2.41,9.31-1.66,2.24-4.01,3.11-7.04,2.62-1.45-.24-2.78-1.15-3.98-2.75-1.15-1.59-1.73-3.39-1.74-5.4,0-2.01.56-3.67,1.69-4.99,1.19-1.31,2.51-1.86,3.96-1.65,1.36.21,2.33.75,2.91,1.65.27.31.5.49.69.51.32.05.56-.12.74-.49.25-.37.37-.89.37-1.56-.04-3-.99-5.64-2.85-7.93-1.82-2.27-4.13-3.59-6.96-3.97-3.06-.39-5.88.81-8.48,3.61-2.61,2.76-3.9,6.6-3.87,11.5.04,7.02,1.87,12.65,5.5,16.86,3.75,4.31,8.08,6.89,12.99,7.75,5.11.91,9.61.14,13.5-2.3,3.97-2.46,7.01-6.27,9.11-11.45,2.11-5.2,3.15-11.15,3.12-17.83-.02-6.82-1.26-13.41-3.72-19.76-2.5-6.31-6.06-11.54-10.67-15.68-4.53-4.07-9.7-6.38-15.48-6.92-6.31-.58-12.77.83-19.38,4.26-6.6,3.37-12.09,8.88-16.5,16.55-4.48,7.56-6.69,17.14-6.61,28.72.06,11.97,2.51,22.79,7.34,32.48,4.69,9.8,10.9,17.82,18.62,24.05,7.63,6.38,15.86,10.56,24.7,12.54,8.21,1.9,16.07.77,23.56-3.42,7.44-4.29,13.46-11.73,18.08-22.32,4.64-10.76,6.94-24.12,6.91-40.07-.02-13.37-2.05-25.27-6.07-35.69-3.97-10.25-8.83-18.9-14.57-25.94-5.68-6.88-13.33-14.92-22.96-24.12-8.37-7.63-15.13-14.15-20.24-19.58-5.03-5.35-9.27-11.62-12.7-18.83-3.4-7.13-5.12-15.28-5.17-24.46-.05-8.52,1.62-16.16,5.03-22.89,3.37-6.81,8.15-12.23,14.33-16.28,6.24-4.13,13.32-6.44,21.23-6.93,6.78-.44,12.86,1.22,18.27,4.99,5.39,3.84,8.83,9.54,10.31,17.11,1.69-3.19,2.97-5.95,3.84-8.26.9-2.33,1.35-4.71,1.35-7.13,0-1.99-.41-3.62-1.2-4.84-.79-1.22-1.98-1.71-3.56-1.47-.23-1.69.23-3.35,1.35-4.99,1.08-1.64,2.63-2.54,4.64-2.69,2.63-.2,4.82,1.03,6.55,3.7,1.72,2.69,2.58,6.49,2.59,11.39,0,3.62-.7,7.15-2.13,10.6-1.48,3.45-3.68,7.65-6.61,12.62-3.57,6.07-6.2,11.2-7.89,15.41-1.81,4.19-2.71,8.89-2.69,14.11.02,6.35,1.1,11.41,3.23,15.18,2.06,3.81,4.55,5.76,7.47,5.85.41,0,.71-.12.88-.41.14-.28.11-.5-.1-.65-1.47-1.61-2.2-3.69-2.21-6.26,0-2.14.54-3.99,1.64-5.53,1.13-1.56,2.46-2.34,3.99-2.33,1.79.02,3.22.91,4.28,2.66,1.05,1.75,1.56,3.64,1.57,5.66,0,4.19-1.03,7.59-3.11,10.2-1.98,2.58-4.75,3.8-8.33,3.66-5.55-.21-10.1-2.8-13.66-7.77-3.53-4.9-5.42-10.92-5.66-18.02-1.9.67-3.73,1.01-5.49.99-5.39-.04-9.71-2.16-12.97-6.34-3.24-4.14-4.88-9.13-4.9-14.96-.02-5.16,1.03-9.22,3.17-12.21,2.11-3.01,4.43-4.55,6.96-4.64.83-.03,1.66.15,2.52.54-1.35,2.51-2.03,5.07-2.02,7.68.02,2.75.72,5.14,2.13,7.18,1.46,2.04,3.37,3.05,5.72,3.02,2.49-.04,4.76-1.4,6.81-4.09,2.01-2.71,3.01-6.3,2.99-10.78-.02-7.15-1.82-12.77-5.39-16.86-3.64-4.04-8.41-5.89-14.3-5.55-3.69.2-7.16,1.68-10.41,4.43-3.32,2.73-5.89,6.45-7.68,11.17-1.89,4.68-2.82,9.84-2.79,15.47.03,6.83,1.49,13.02,4.39,18.58,2.85,5.6,6.43,10.68,10.71,15.2,4.3,4.6,10.35,10.47,18.14,17.61,10.61,10.04,19.29,19.25,26.04,27.66,6.7,8.63,12.42,19.49,17.18,32.58,4.73,13.35,7.09,28.67,7.09,45.96s-3.1,33.04-9.29,45.94c-6.21,12.63-14.64,21.59-25.3,26.87-10.76,5.1-22.65,6.04-35.68,2.82-10.9-2.55-20.84-7.81-29.82-15.77-9.13-7.74-16.3-17.34-21.52-28.79-5.3-11.26-7.99-23.46-8.09-36.61h0Z"/></svg>