<?xml version="1.0" standalone="no"?>
<!DOCTYPE svg PUBLIC "-//W3C//DTD SVG 20010904//EN"
 "http://www.w3.org/TR/2001/REC-SVG-20010904/DTD/svg10.dtd">
<svg version="1.0" xmlns="http://www.w3.org/2000/svg"
 width="900.000000pt" height="315.000000pt" viewBox="0 0 900.000000 315.000000"
 preserveAspectRatio="xMidYMid meet">
<g transform="translate(0.000000,315.000000) scale(0.100000,-0.100000)"
fill="#000000" stroke="none">
<path d="M7490 3014 c-14 -2 -65 -9 -115 -14 -136 -16 -308 -72 -413 -136 -85
-51 -208 -152 -255 -208 -23 -28 -44 -53 -48 -56 -12 -10 -96 -147 -118 -194
-34 -70 -62 -145 -72 -194 -4 -23 -12 -50 -17 -60 -5 -9 -15 -76 -22 -149 -14
-143 -5 -287 27 -408 18 -71 71 -203 90 -226 7 -8 13 -19 13 -23 0 -7 65 -95
110 -149 35 -43 162 -136 231 -170 106 -51 179 -73 305 -91 113 -16 144 -15
314 13 136 22 307 114 409 220 195 205 247 513 126 753 -36 72 -85 129 -153
180 -112 84 -189 108 -349 108 -129 0 -157 -6 -260 -57 -220 -109 -295 -422
-138 -579 67 -66 110 -84 205 -84 91 0 134 16 200 76 64 58 83 105 84 204 0
94 -16 136 -73 198 -31 33 -104 75 -153 87 -16 4 -28 11 -28 16 0 16 54 23
170 23 112 0 150 -8 210 -45 8 -5 24 -13 35 -18 28 -12 89 -73 124 -124 52
-76 71 -148 71 -267 -1 -119 -22 -197 -81 -296 -35 -60 -133 -164 -174 -186
-92 -50 -178 -88 -199 -88 -8 0 -41 -7 -73 -15 -105 -27 -318 -10 -428 35
-128 53 -187 90 -271 174 -155 156 -234 363 -234 617 1 457 263 834 670 966
201 64 475 65 680 1 336 -104 616 -349 740 -646 63 -150 75 -194 96 -352 17
-125 18 -225 4 -340 -23 -189 -60 -318 -135 -466 -126 -248 -329 -441 -615
-584 -87 -43 -109 -52 -220 -89 -107 -36 -151 -48 -235 -66 -44 -9 -101 -21
-127 -27 -56 -11 -166 -23 -377 -38 -194 -15 -779 -8 -836 9 -22 7 -65 19 -95
28 -129 35 -280 117 -440 239 -92 69 -278 251 -314 306 -15 23 -21 26 -38 17
-10 -6 -22 -18 -26 -27 -23 -61 -121 -172 -216 -246 -114 -89 -167 -122 -286
-181 -41 -20 -86 -42 -100 -49 -31 -16 -205 -69 -285 -87 -46 -10 -221 -14
-735 -17 -371 -2 -691 0 -710 4 -39 7 -42 5 53 40 198 74 344 145 492 243 39
25 72 48 75 51 3 3 28 23 55 44 74 58 195 184 236 246 84 126 123 224 145 358
15 95 15 109 0 205 -28 169 -80 281 -181 382 -191 190 -467 220 -628 66 -61
-58 -80 -104 -81 -196 -1 -66 3 -86 21 -116 57 -90 122 -129 218 -129 183 0
298 181 218 344 -15 31 -24 58 -21 61 3 4 35 -7 71 -24 205 -96 320 -379 258
-633 -66 -270 -291 -503 -661 -684 -63 -31 -123 -61 -132 -65 -33 -17 -179
-67 -273 -94 -33 -9 -75 -21 -92 -26 -32 -10 -56 -15 -193 -39 -36 -6 -92 -16
-125 -22 -42 -8 -400 -14 -1180 -17 l-1120 -6 -3 -32 c-2 -18 2 -41 8 -53 l11
-20 3507 4 c2049 2 3544 8 3597 13 455 47 840 186 1114 401 327 258 502 612
517 1042 10 292 -22 462 -129 690 -113 240 -321 467 -526 577 -123 67 -192 94
-316 126 -100 26 -329 50 -385 41z"/>
</g>
</svg>
